<svg width="16" height="16" viewBox="0 0 16 16" fill="none" xmlns="http://www.w3.org/2000/svg">
<path d="M8.99992 1.33325C8.99992 0.780967 8.55221 0.333252 7.99992 0.333252C7.44764 0.333252 6.99992 0.780967 6.99992 1.33325V6.99992H1.33325C0.780968 6.99992 0.333252 7.44763 0.333252 7.99992C0.333252 8.5522 0.780968 8.99992 1.33325 8.99992H6.99992V14.6666C6.99992 15.2189 7.44764 15.6666 7.99992 15.6666C8.55221 15.6666 8.99992 15.2189 8.99992 14.6666V8.99992H14.6666C15.2189 8.99992 15.6666 8.5522 15.6666 7.99992C15.6666 7.44763 15.2189 6.99992 14.6666 6.99992H8.99992V1.33325Z" fill="#006FFD"/>
</svg>
